<?xml version="1.0" encoding="utf-8"?>
<!-- Generator: Adobe Illustrator 27.5.0, SVG Export Plug-In . SVG Version: 6.00 Build 0)  -->
<svg version="1.1" id="Layer_1" xmlns="http://www.w3.org/2000/svg" xmlns:xlink="http://www.w3.org/1999/xlink" x="0px" y="0px"
	 viewBox="0 0 340.453 344.564" style="enable-background:new 0 0 340.453 344.564;" xml:space="preserve">
<g>
	<g>
		<path style="fill:#FBB216;" d="M47.41,335.018c-2.489-1.021-4.936-2.22-7.342-3.598c-19.212-11.013-31.391-28.385-34.291-48.915
			c-3.62-25.628,7.504-53.29,31.324-77.903L174.84,55.683c1.926-2.414,14.11-17.243,32.76-30.223
			C234.848,6.497,262.843,0.675,288.56,8.626c28.236,8.734,39.338,26.231,43.669,39.371c8.345,25.318-0.348,59.915-22.687,90.289
			c-0.148,0.201-0.304,0.396-0.469,0.583L183.204,282.348c-3.17,3.614-8.674,3.967-12.282,0.803
			c-3.613-3.17-3.973-8.669-0.803-12.283l125.619-143.192c18.898-25.832,26.545-54.248,19.959-74.228
			c-4.433-13.454-15.283-22.938-32.279-28.19C233.511,9.827,188.766,66.129,188.32,66.7c-0.148,0.189-0.309,0.38-0.473,0.556
			L49.811,216.496c-0.045,0.05-0.092,0.099-0.139,0.147c-20.046,20.687-29.514,43.213-26.658,63.428
			c2.131,15.092,11.263,27.965,25.712,36.247c33.644,19.297,69.062-17.188,70.739-18.951l131.369-149.299
			c12.623-14.471,17.772-29.094,14.476-41.147c-2.802-10.244-11.533-18.054-25.268-22.601
			c-29.717-9.832-54.398,21.604-54.644,21.922c-0.163,0.213-0.336,0.417-0.519,0.613L91.598,207.098
			c-3.275,3.519-8.784,3.715-12.301,0.443c-3.519-3.275-3.716-8.782-0.443-12.301l93.047-99.991
			c1.54-1.92,9.007-10.846,20.45-18.459c17.457-11.615,35.839-14.725,53.158-8.995c19.249,6.368,32.24,18.631,36.591,34.535
			c4.884,17.858-1.57,38.176-18.172,57.211L132.439,308.974c-0.051,0.057-0.102,0.114-0.154,0.17
			c-0.458,0.493-11.396,12.179-27.804,20.848C84.535,340.531,64.97,342.218,47.41,335.018z"/>
		<path style="fill:#97A945;" d="M287.967,14.432c0,0-32.742-11.529-69.757,9.338c0,0-18.008,9.216-33.641,26.52
			c-15.633,17.304-150.62,162.577-150.62,162.577s-22.305,25.477-24.852,46.725c0,0,13.113-27.349,26.269-40.926
			C48.521,205.089,189.92,53.433,189.92,53.433s23.478-21.287,43.041-29.78C254.311,14.385,271.571,16.246,287.967,14.432z"/>
		<path style="fill:#97A945;" d="M243.858,71.798c-3.714,0.65-0.878-0.352-1.351-0.436c-0.271-0.048-0.616-0.106-1.028-0.17
			c-6.165-0.959-27.453-3.237-43.956,7.652C178.016,91.713,85.215,193.101,85.215,193.101s-4.767,4.685-3.237,6.736
			c1.531,2.05,103.825-103.982,103.825-103.982s22.038-24.044,54.682-18.84C267.965,81.395,248.174,71.042,243.858,71.798z"/>
	</g>
	<path style="fill:#DD8D1A;" d="M268.556,127.387c-0.013,0.003-0.027,0.008-0.04,0.011c-5.859,10.393-14.036,19.661-14.036,19.661
		S131.079,298.422,99.668,316.495c-31.411,18.073-55.643,1.807-61.476-1.807s-3.59,3.163-3.59,3.163
		c13.462,18.977,43.527,14.91,43.527,14.91c30.065-5.422,53.848-32.983,53.848-32.983s129.235-149.103,138.209-162.658
		c1.769-2.672,2.956-5.52,3.733-8.37C272.975,126.77,270.352,126.944,268.556,127.387z"/>
	<path style="fill:#DD8D1A;" d="M176.235,280.486c0,0,6.731-1.355,13.013-9.94c6.282-8.585,119.363-136.904,119.363-136.904
		s25.578-40.213,22.437-65.515c0,0-8.118-6.653-5.21,5.497c2.312,9.661-7.803,44.204-24.855,62.277
		c-17.052,18.073-121.606,135.097-121.606,135.097S169.504,281.841,176.235,280.486z"/>
</g>
</svg>
